<svg width="566" height="565" viewBox="0 0 566 565" fill="none" xmlns="http://www.w3.org/2000/svg">
<path d="M0.911621 152.57L1.35957 322.839L17.0442 331.962L16.5963 161.693L199.347 56.1767L183.66 47.0549L0.911621 152.57Z" fill="white"/>
<path d="M100.129 284.006L199.783 226.47L199.348 56.1929L16.5993 161.704L17.0344 331.98L78.5259 296.477" stroke="white" stroke-width="1.823" stroke-linecap="round" stroke-linejoin="round"/>
<path d="M32.334 200.231V265.851C32.334 266.379 32.6273 266.851 33.0978 267.145C33.333 267.262 33.5667 267.32 33.8019 267.32C34.0952 267.32 34.3304 267.262 34.5657 267.145L102.066 228.136C102.536 227.901 102.83 227.43 102.83 226.902V161.222C102.83 160.694 102.536 160.223 102.066 159.93C101.655 159.695 101.068 159.695 100.598 159.93L33.0978 198.939C32.6273 199.174 32.334 199.703 32.334 200.231Z" fill="#AEFF7C"/>
<path d="M114.286 152.059C113.816 152.294 113.58 152.823 113.58 153.351V218.913C113.58 219.441 113.816 219.912 114.286 220.205C114.521 220.323 114.757 220.381 115.05 220.381C115.285 220.381 115.519 220.323 115.754 220.205L183.314 181.196C183.725 180.961 184.018 180.492 184.018 179.964V114.342C184.018 113.814 183.725 113.343 183.314 113.108C182.843 112.815 182.315 112.815 181.844 113.108L114.286 152.059Z" fill="#AEFF7C"/>
<path d="M114.446 87.0176L0.911623 152.57L1.08403 212.016" stroke="white" stroke-width="1.823" stroke-linecap="round" stroke-linejoin="round"/>
<path d="M1.15653 236.454L1.35957 322.839L17.0442 331.962L16.5963 161.693L199.347 56.1767L183.66 47.0549L137.657 73.6161" stroke="white" stroke-width="1.823" stroke-linecap="round" stroke-linejoin="round"/>
<path d="M17.0346 189.384L199.427 84.0801" stroke="white" stroke-width="1.823" stroke-linecap="round" stroke-linejoin="round"/>
<path d="M184.511 74.7457C182.757 75.7592 181.35 78.2101 181.356 80.2113C181.363 82.2126 182.777 83.0344 184.532 82.0209C186.274 81.0154 187.681 78.5645 187.674 76.5633C187.668 74.562 186.253 73.7402 184.511 74.7457Z" fill="#CB5BE3"/>
<path d="M173.198 81.2765C171.443 82.29 170.037 84.7408 170.043 86.7421C170.05 88.7434 171.464 89.5651 173.219 88.5516C174.961 87.5461 176.369 85.0953 176.363 83.094C176.356 81.0928 174.94 80.271 173.198 81.2765Z" fill="#CB5BE3"/>
<path d="M161.887 87.8088C160.132 88.8223 158.725 91.2715 158.732 93.2728C158.738 95.2741 160.153 96.0958 161.908 95.0823C163.65 94.0768 165.056 91.626 165.05 89.6247C165.043 87.6235 163.629 86.8033 161.887 87.8088Z" fill="#CB5BE3"/>
<path d="M137.581 170.473L152.682 190.6L163.686 165.786C163.958 165.172 164.772 165.038 165.226 165.533L180.911 182.587L116.339 219.868L135.968 170.687C136.239 170.011 137.144 169.891 137.581 170.473Z" fill="white"/>
<path d="M182.563 203.953C182.563 200.772 182.563 198.242 182.563 198.242L33.8133 284.092V302.479L182.563 216.571C182.563 216.571 182.563 209.332 182.563 203.953Z" stroke="white" stroke-width="1.823" stroke-linecap="round" stroke-linejoin="round" stroke-dasharray="5.47 5.1"/>
<path d="M171.775 149.732C174.605 148.098 176.823 149.423 176.833 152.615C176.843 155.807 174.637 159.685 171.807 161.319C169.029 162.922 166.811 161.599 166.801 158.407C166.791 155.215 168.997 151.335 171.775 149.732Z" fill="white"/>
<path d="M75.5509 226.438C74.8889 226.82 74.2122 226.999 73.5907 226.887L57.6219 223.968C55.4832 223.555 55.4722 219.936 57.6016 217.058L73.5024 195.74C74.1221 194.912 74.8007 194.307 75.4627 193.925C77.3291 192.847 79.0779 193.535 79.0853 195.964L79.1533 220.199C79.1606 222.65 77.4192 225.36 75.5509 226.438Z" fill="#FF332A"/>
<path d="M124.417 348.47C124.567 326.752 124.86 284.167 124.86 284.167H150.443L135.042 353.868L124.331 360.89M124.331 360.89C124.331 360.89 124.365 355.901 124.417 348.47Z" stroke="white" stroke-width="1.823" stroke-linecap="round" stroke-linejoin="round" stroke-dasharray="5.47 5.1"/>
<path d="M464.125 520.208C450.691 527.227 440.977 532.303 440.977 532.303L374.896 494.15L389.274 423.263L415.774 408.152L542.962 479.02C542.962 479.02 494.215 504.488 464.125 520.208Z" stroke="white" stroke-width="1.823" stroke-linecap="round" stroke-linejoin="round" stroke-dasharray="5.47 5.1"/>
<path d="M54.5976 434.147L275.723 563.097C279.66 565.389 284.594 565.448 288.648 563.333L387.166 511.048C389.928 509.58 389.986 505.644 387.284 504.116L383.76 502.06L349.392 520.154L324.953 533.02L282.655 555.344V538.835L71.5182 416.172L54.48 427.393C51.9534 428.978 52.071 432.62 54.5976 434.147Z" fill="#CB5BE3"/>
<path d="M242.53 386.033L387.401 470.219L359.967 488.195L282.655 538.836L71.5182 416.172L54.7749 406.42L159.579 337.803L222.087 374.167" stroke="white" stroke-width="1.823" stroke-linecap="round" stroke-linejoin="round"/>
<path d="M282.652 538.845L54.7892 406.426L54.8199 422.918L282.683 555.337L282.652 538.845Z" fill="white"/>
<path d="M282.652 538.845L54.7892 406.426L54.8199 422.918L282.683 555.337L282.652 538.845Z" stroke="white" stroke-width="1.823" stroke-linecap="round" stroke-linejoin="round"/>
<path d="M349.392 520.154L383.76 502.06L387.519 500.062L387.401 470.219L359.965 488.195L282.655 538.836V555.344L324.953 533.02" stroke="white" stroke-width="1.823" stroke-linecap="round" stroke-linejoin="round"/>
<path d="M147.067 382.412C148.714 383.363 148.722 384.954 147.052 385.991L133.556 394.378C131.92 395.395 129.233 395.469 127.586 394.518L114.03 386.692C112.383 385.741 112.373 384.109 114.009 383.092L127.505 374.706C129.175 373.668 131.862 373.636 133.509 374.586L147.067 382.412Z" fill="#CB5BE3"/>
<path d="M147.067 382.412C148.714 383.363 148.722 384.954 147.052 385.991L133.556 394.378C131.92 395.395 129.233 395.469 127.586 394.518L114.03 386.692C112.383 385.742 112.373 384.109 114.009 383.092L127.505 374.706C129.175 373.668 131.862 373.636 133.509 374.586L147.067 382.412Z" stroke="white" stroke-width="1.823" stroke-linecap="round" stroke-linejoin="round"/>
<path d="M238.985 435.482C240.632 436.432 240.64 438.023 238.97 439.06L225.474 447.447C223.838 448.464 221.151 448.538 219.504 447.588L205.948 439.761C204.301 438.811 204.291 437.178 205.927 436.162L219.423 427.775C221.093 426.737 223.78 426.705 225.427 427.655L238.985 435.482Z" fill="#CB5BE3"/>
<path d="M238.985 435.482C240.632 436.432 240.64 438.023 238.97 439.06L225.474 447.447C223.838 448.464 221.151 448.538 219.504 447.588L205.948 439.761C204.301 438.811 204.291 437.178 205.927 436.162L219.423 427.775C221.093 426.737 223.78 426.705 225.427 427.655L238.985 435.482Z" stroke="white" stroke-width="1.823" stroke-linecap="round" stroke-linejoin="round"/>
<path d="M197.656 391.288L194.469 393.268C192.834 394.285 190.147 394.357 188.465 393.387L174.909 385.561C173.262 384.61 173.288 382.999 174.924 381.982L188.42 373.595C190.089 372.558 192.742 372.504 194.388 373.455L207.945 381.281C209.627 382.251 209.635 383.843 207.966 384.881" fill="#CB5BE3"/>
<path d="M197.656 391.288L194.469 393.268C192.834 394.285 190.147 394.357 188.465 393.387L174.909 385.561C173.262 384.61 173.288 382.999 174.924 381.982L188.42 373.595C190.089 372.558 192.742 372.504 194.388 373.455L207.945 381.281C209.627 382.251 209.635 383.843 207.966 384.881" stroke="white" stroke-width="1.823" stroke-linecap="round" stroke-linejoin="round"/>
<path d="M178.565 423.951L175.297 422.064C173.651 421.114 173.676 419.502 175.312 418.485L188.808 410.099C190.478 409.061 193.13 409.008 194.777 409.958L208.333 417.786C209.98 418.737 209.989 420.326 208.32 421.363L194.823 429.752C193.188 430.769 190.5 430.841 188.853 429.89L185.163 427.76" fill="#CB5BE3"/>
<path d="M178.565 423.951L175.297 422.064C173.651 421.114 173.676 419.502 175.312 418.485L188.808 410.099C190.478 409.061 193.13 409.008 194.777 409.958L208.333 417.786C209.98 418.737 209.989 420.326 208.32 421.363L194.823 429.752C193.188 430.769 190.5 430.841 188.853 429.89L185.163 427.76" stroke="white" stroke-width="1.823" stroke-linecap="round" stroke-linejoin="round"/>
<path d="M177.329 363.605C178.976 364.556 178.984 366.146 177.315 367.184L163.818 375.571C162.183 376.588 159.497 376.662 157.85 375.711L144.294 367.885C142.647 366.934 142.636 365.303 144.271 364.287L157.768 355.898C159.437 354.86 162.126 354.828 163.773 355.779L177.329 363.605Z" fill="#CB5BE3"/>
<path d="M177.329 363.605C178.976 364.556 178.984 366.146 177.315 367.184L163.818 375.571C162.183 376.588 159.497 376.662 157.85 375.711L144.294 367.885C142.647 366.934 142.636 365.303 144.271 364.287L157.768 355.898C159.437 354.86 162.126 354.828 163.773 355.779L177.329 363.605Z" stroke="white" stroke-width="1.823" stroke-linecap="round" stroke-linejoin="round"/>
<path d="M258.677 426.813L255.737 428.64C254.101 429.657 251.415 429.731 249.768 428.78L236.212 420.954C234.565 420.003 234.554 418.373 236.19 417.356L249.686 408.967C251.355 407.93 254.045 407.897 255.691 408.848L269.248 416.674C270.894 417.625 270.902 419.215 269.233 420.253L265.841 422.362" fill="#CB5BE3"/>
<path d="M258.677 426.813L255.737 428.64C254.101 429.657 251.415 429.731 249.768 428.78L236.212 420.954C234.565 420.003 234.554 418.373 236.19 417.356L249.686 408.967C251.355 407.93 254.045 407.897 255.691 408.848L269.248 416.674C270.894 417.625 270.902 419.215 269.233 420.253L265.841 422.362" stroke="white" stroke-width="1.823" stroke-linecap="round" stroke-linejoin="round"/>
<path d="M350.329 480.046L347.655 481.709C346.019 482.726 343.333 482.8 341.686 481.849L328.129 474.023C326.482 473.072 326.508 471.461 328.143 470.444L341.639 462.057C343.309 461.02 345.963 460.966 347.609 461.917L361.166 469.743C362.812 470.694 362.82 472.284 361.151 473.322L357.045 475.875" fill="#CB5BE3"/>
<path d="M350.329 480.046L347.655 481.709C346.019 482.726 343.333 482.8 341.686 481.849L328.129 474.023C326.482 473.072 326.508 471.461 328.143 470.444L341.639 462.057C343.309 461.02 345.963 460.966 347.609 461.917L361.166 469.743C362.812 470.694 362.82 472.284 361.151 473.322L357.045 475.875" stroke="white" stroke-width="1.823" stroke-linecap="round" stroke-linejoin="round"/>
<path d="M147.42 418.896C149.102 419.866 149.11 421.457 147.441 422.494L133.944 430.881C132.309 431.898 129.623 431.972 127.94 431.002L114.383 423.174C112.736 422.224 112.762 420.614 114.397 419.597L127.894 411.209C129.563 410.171 132.217 410.119 133.864 411.07L147.42 418.896Z" fill="#CB5BE3"/>
<path d="M147.42 418.896C149.102 419.866 149.11 421.457 147.441 422.494L133.944 430.881C132.309 431.898 129.623 431.972 127.94 431.002L114.383 423.174C112.736 422.224 112.762 420.614 114.397 419.597L127.894 411.209C129.563 410.171 132.217 410.119 133.864 411.07L147.42 418.896Z" stroke="white" stroke-width="1.823" stroke-linecap="round" stroke-linejoin="round"/>
<path d="M300.251 470.855C301.898 471.806 301.942 473.416 300.272 474.453L286.776 482.84C285.14 483.857 282.419 483.91 280.772 482.96L267.216 475.133C265.569 474.183 265.593 472.571 267.229 471.555L280.727 463.168C282.396 462.13 285.048 462.077 286.695 463.027L300.251 470.855Z" fill="#CB5BE3"/>
<path d="M300.251 470.855C301.898 471.806 301.942 473.416 300.272 474.453L286.776 482.84C285.14 483.857 282.419 483.91 280.772 482.96L267.216 475.133C265.569 474.183 265.593 472.571 267.229 471.555L280.727 463.168C282.396 462.13 285.048 462.077 286.695 463.027L300.251 470.855Z" stroke="white" stroke-width="1.823" stroke-linecap="round" stroke-linejoin="round"/>
<path d="M269.989 489.661C271.635 490.612 271.679 492.221 270.009 493.259L256.513 501.648C254.878 502.664 252.156 502.718 250.509 501.767L236.953 493.941C235.306 492.99 235.33 491.379 236.966 490.362L250.462 481.975C252.132 480.937 254.786 480.884 256.432 481.835L269.989 489.661Z" fill="#CB5BE3"/>
<path d="M269.989 489.661C271.635 490.612 271.679 492.221 270.009 493.259L256.513 501.648C254.878 502.664 252.156 502.718 250.509 501.767L236.953 493.941C235.306 492.99 235.33 491.379 236.966 490.362L250.462 481.975C252.132 480.937 254.786 480.884 256.432 481.835L269.989 489.661Z" stroke="white" stroke-width="1.823" stroke-linecap="round" stroke-linejoin="round"/>
<path d="M308.714 482.52L311.377 480.863C313.047 479.825 315.699 479.774 317.346 480.725L330.903 488.551C332.55 489.501 332.558 491.092 330.889 492.13L317.392 500.517C315.757 501.533 313.069 501.607 311.422 500.657L297.866 492.829C296.22 491.878 296.245 490.268 297.881 489.252L301.134 487.23" fill="#CB5BE3"/>
<path d="M308.714 482.52L311.377 480.863C313.047 479.825 315.699 479.774 317.346 480.725L330.903 488.551C332.55 489.501 332.558 491.092 330.889 492.13L317.392 500.517C315.757 501.533 313.069 501.607 311.422 500.657L297.866 492.829C296.22 491.878 296.245 490.268 297.881 489.252L301.134 487.23" stroke="white" stroke-width="1.823" stroke-linecap="round" stroke-linejoin="round"/>
<path d="M299.898 434.372C301.545 435.322 301.553 436.913 299.883 437.95L286.387 446.337C284.752 447.354 282.065 447.428 280.419 446.477L266.827 438.63C265.18 437.68 265.206 436.068 266.842 435.052L280.338 426.665C282.007 425.627 284.66 425.574 286.306 426.524L299.898 434.372Z" fill="#CB5BE3"/>
<path d="M299.898 434.372C301.545 435.322 301.553 436.913 299.883 437.95L286.387 446.337C284.752 447.354 282.065 447.428 280.419 446.477L266.827 438.63C265.18 437.68 265.206 436.068 266.842 435.052L280.338 426.665C282.007 425.627 284.66 425.574 286.306 426.524L299.898 434.372Z" stroke="white" stroke-width="1.823" stroke-linecap="round" stroke-linejoin="round"/>
<path d="M334.484 528.007L339.848 525.178" stroke="white" stroke-width="1.823" stroke-linecap="round" stroke-linejoin="round"/>
<path d="M373.409 487.018C370.292 488.818 367.759 493.206 367.769 496.788C367.779 500.37 370.329 501.822 373.446 500.022C376.562 498.222 379.097 493.836 379.087 490.254C379.077 486.672 376.525 485.219 373.409 487.018Z" stroke="white" stroke-width="1.823" stroke-linecap="round" stroke-linejoin="round"/>
<path d="M238.597 398.979C240.244 399.929 240.252 401.52 238.583 402.557L225.086 410.944C223.451 411.961 220.763 412.035 219.116 411.084L205.56 403.257C203.913 402.306 203.939 400.696 205.575 399.679L219.071 391.291C220.74 390.253 223.393 390.202 225.039 391.152L238.597 398.979Z" fill="#CB5BE3"/>
<path d="M238.597 398.979C240.244 399.929 240.252 401.52 238.583 402.557L225.086 410.944C223.451 411.961 220.763 412.035 219.116 411.084L205.56 403.257C203.913 402.306 203.939 400.696 205.575 399.679L219.071 391.291C220.74 390.253 223.393 390.202 225.039 391.152L238.597 398.979Z" stroke="white" stroke-width="1.823" stroke-linecap="round" stroke-linejoin="round"/>
<path d="M94.5473 395.189L97.243 393.513C98.9124 392.475 101.6 392.443 103.247 393.394L116.803 401.22C118.45 402.171 118.459 403.761 116.79 404.799L103.294 413.186C101.658 414.202 98.9704 414.276 97.3236 413.326L83.7675 405.498C82.1207 404.547 82.111 402.917 83.7465 401.9L86.7968 400.005" fill="#CB5BE3"/>
<path d="M94.5473 395.189L97.243 393.513C98.9124 392.475 101.6 392.443 103.247 393.394L116.803 401.22C118.45 402.171 118.459 403.761 116.79 404.799L103.294 413.186C101.658 414.202 98.9704 414.276 97.3236 413.326L83.7675 405.498C82.1207 404.547 82.111 402.917 83.7465 401.9L86.7968 400.005" stroke="white" stroke-width="1.823" stroke-linecap="round" stroke-linejoin="round"/>
<path d="M239.833 459.324L236.565 457.436C234.919 456.485 234.943 454.876 236.578 453.859L250.075 445.472C251.744 444.434 254.398 444.381 256.045 445.332L269.636 453.179C271.283 454.129 271.291 455.718 269.622 456.756L256.125 465.145C254.49 466.161 251.804 466.234 250.157 465.283L247.213 463.585" fill="#CB5BE3"/>
<path d="M239.833 459.324L236.565 457.436C234.919 456.485 234.943 454.876 236.578 453.859L250.075 445.472C251.744 444.434 254.398 444.381 256.045 445.332L269.636 453.179C271.283 454.129 271.291 455.718 269.622 456.756L256.125 465.145C254.49 466.161 251.804 466.234 250.157 465.283L247.213 463.585" stroke="white" stroke-width="1.823" stroke-linecap="round" stroke-linejoin="round"/>
<path d="M177.682 400.089C179.365 401.059 179.373 402.649 177.703 403.687L164.207 412.075C162.571 413.092 159.885 413.165 158.203 412.195L144.647 404.368C143 403.418 143.024 401.806 144.66 400.79L158.156 392.403C159.826 391.365 162.479 391.312 164.126 392.263L177.682 400.089Z" fill="#CB5BE3"/>
<path d="M177.682 400.089C179.365 401.059 179.373 402.649 177.703 403.687L164.207 412.075C162.571 413.092 159.885 413.165 158.203 412.195L144.647 404.368C143 403.418 143.024 401.806 144.66 400.79L158.156 392.403C159.826 391.365 162.479 391.312 164.126 392.263L177.682 400.089Z" stroke="white" stroke-width="1.823" stroke-linecap="round" stroke-linejoin="round"/>
<path d="M330.515 452.048C332.162 452.998 332.206 454.608 330.536 455.646L317.04 464.033C315.404 465.049 312.683 465.104 311.036 464.154L297.478 456.326C295.832 455.375 295.857 453.765 297.493 452.749L310.989 444.36C312.659 443.322 315.311 443.269 316.958 444.22L330.515 452.048Z" fill="#CB5BE3"/>
<path d="M330.515 452.048C332.162 452.998 332.206 454.608 330.536 455.646L317.04 464.033C315.404 465.049 312.683 465.104 311.036 464.154L297.478 456.326C295.832 455.375 295.857 453.765 297.493 452.749L310.989 444.36C312.659 443.322 315.311 443.269 316.958 444.22L330.515 452.048Z" stroke="white" stroke-width="1.823" stroke-linecap="round" stroke-linejoin="round"/>
<path d="M189.782 466.706L145.035 440.871C143.389 439.921 143.413 438.309 145.048 437.293L158.545 428.906C160.214 427.868 162.868 427.815 164.515 428.766L239.372 471.985C241.019 472.935 241.029 474.526 239.359 475.563L225.863 483.95C224.227 484.967 221.54 485.041 219.893 484.091L200.675 472.995" fill="#CB5BE3"/>
<path d="M189.782 466.706L145.035 440.871C143.389 439.921 143.413 438.309 145.048 437.293L158.545 428.906C160.214 427.868 162.868 427.815 164.515 428.766L239.372 471.985C241.019 472.935 241.029 474.526 239.359 475.563L225.863 483.95C224.227 484.967 221.54 485.041 219.893 484.091L200.675 472.995" stroke="white" stroke-width="1.823" stroke-linecap="round" stroke-linejoin="round"/>
<path d="M300.64 507.358C302.286 508.309 302.295 509.898 300.625 510.935L287.129 519.324C285.493 520.341 282.807 520.415 281.16 519.464L267.604 511.636C265.957 510.685 265.982 509.076 267.617 508.059L281.114 499.67C282.783 498.633 285.437 498.58 287.084 499.53L300.64 507.358Z" fill="#CB5BE3"/>
<path d="M300.64 507.358C302.286 508.309 302.295 509.898 300.625 510.935L287.129 519.324C285.493 520.341 282.807 520.415 281.16 519.464L267.604 511.636C265.957 510.685 265.982 509.076 267.617 508.059L281.114 499.67C282.783 498.633 285.437 498.58 287.084 499.53L300.64 507.358Z" stroke="white" stroke-width="1.823" stroke-linecap="round" stroke-linejoin="round"/>
<path d="M406.376 417.228V417.288C419.829 407.889 430.463 385.622 430.405 369.76V359.127" stroke="white" stroke-width="1.823" stroke-linecap="round" stroke-linejoin="round"/>
<path d="M354.327 315.185L354.268 333.455C354.21 341.857 347.864 348.905 339.522 349.786L301.042 354.016C294.581 354.78 292.112 359.362 296.813 362.124L393.57 417.934C397.506 420.283 403.732 419.637 406.376 417.228C406.965 416.7 407.316 416.171 407.551 415.525L413.191 398.018C416.011 389.148 417.48 379.983 417.48 370.701L417.538 351.725" stroke="white" stroke-width="1.823" stroke-linecap="round" stroke-linejoin="round"/>
<path d="M534.857 172.018C538.441 177.012 540.789 183.18 540.731 188.644L540.144 406.302C540.144 410.707 538.559 413.822 536.032 415.29L560.236 401.249C562.762 399.781 564.348 396.726 564.348 392.261L564.876 174.603C564.876 170.02 563.233 164.969 560.589 160.504L536.503 174.545C535.974 173.663 535.446 172.84 534.857 172.018Z" fill="white"/>
<path d="M534.857 172.018C538.441 177.012 540.789 183.18 540.731 188.644L540.144 406.302C540.144 410.707 538.559 413.822 536.032 415.29L560.236 401.249C562.762 399.781 564.348 396.726 564.348 392.261L564.876 174.603C564.876 170.02 563.233 164.969 560.589 160.504L536.503 174.545C535.974 173.663 535.446 172.84 534.857 172.018Z" stroke="white" stroke-width="1.823" stroke-linecap="round" stroke-linejoin="round"/>
<path d="M440.392 86.5404L490.62 115.502L550.895 150.281C553.657 151.867 556.301 154.395 558.533 157.391C559.239 158.39 559.943 159.387 560.589 160.504L536.501 174.545C535.973 173.663 535.446 172.84 534.858 172.018C534.036 170.843 533.095 169.727 532.096 168.728C531.743 168.257 531.274 167.788 530.803 167.436C530.393 166.965 529.982 166.614 529.511 166.261C528.63 165.555 527.69 164.851 526.691 164.322L442.213 115.502L271.317 16.8086C267.44 14.6349 263.856 14.34 261.272 15.8676L285.476 1.82806C287.942 0.418147 291.526 0.535771 295.463 2.8851L400.855 63.6886" stroke="white" stroke-width="1.823" stroke-linecap="round" stroke-linejoin="round"/>
<path d="M427.87 79.2926L413.466 70.9797L427.87 79.2926Z" fill="#CB5BE3"/>
<path d="M427.87 79.2926L413.466 70.9797" stroke="white" stroke-width="1.823" stroke-linecap="round" stroke-linejoin="round"/>
<path d="M526.686 164.284C534.426 168.752 540.747 179.649 540.721 188.592L540.181 406.283C540.156 415.226 533.794 418.801 526.055 414.333L270.693 266.9C262.91 262.406 256.633 251.534 256.658 242.591L257.2 24.9007C257.226 15.9579 263.542 12.3582 271.325 16.8522L526.686 164.284Z" stroke="white" stroke-width="1.823" stroke-linecap="round" stroke-linejoin="round"/>
<path d="M274.925 157.879L274.722 239.987L522.141 382.838L522.647 188.547C522.655 185.402 520.433 181.541 517.708 179.968L277.179 41.1026C276.317 40.6047 275.24 41.225 275.237 42.2192L274.971 140.541" stroke="white" stroke-width="1.823" stroke-linecap="round" stroke-linejoin="round"/>
<path d="M506.775 253.063V277.357L485.137 264.855" stroke="#D0CAE3" stroke-width="1.823" stroke-linecap="round" stroke-linejoin="round"/>
<path d="M404.079 156.949V132.663L425.719 145.157" stroke="#D0CAE3" stroke-width="1.823" stroke-linecap="round" stroke-linejoin="round"/>
<path d="M485.137 179.501L506.775 192.004V216.289" stroke="#D0CAE3" stroke-width="1.823" stroke-linecap="round" stroke-linejoin="round"/>
<path d="M425.719 230.517L404.079 218.017V193.729" stroke="#D0CAE3" stroke-width="1.823" stroke-linecap="round" stroke-linejoin="round"/>
<g opacity="0.6">
<path d="M503.84 294.384L292.348 172.26C291.565 171.807 290.587 172.374 290.587 173.278V227.432C290.587 229.53 291.705 231.471 293.523 232.52L505.014 354.644C505.797 355.097 506.775 354.53 506.775 353.626V299.471C506.775 297.373 505.657 295.433 503.84 294.384Z" fill="#CB5BE3"/>
</g>
<path d="M540.213 393.307L256.716 229.58" stroke="white" stroke-width="1.823" stroke-linecap="round" stroke-linejoin="round"/>
<path d="M292.349 68.1133L386.443 122.473C388.26 123.522 389.378 125.462 389.378 127.56V175.876L384.794 166.535C384.622 166.185 384.319 165.918 383.951 165.792C383.584 165.671 383.183 165.691 382.827 165.866L372.213 171.084L360.395 146.068C360.194 145.634 359.786 145.328 359.316 145.248C358.812 145.173 358.359 145.331 358.02 145.67L347.337 156.567L338.37 124.942C338.233 124.457 337.855 124.075 337.373 123.935C336.873 123.788 336.362 123.909 335.984 124.244L321.285 137.292L311.662 112.957L323.976 120.077C324.664 120.478 325.576 120.246 325.984 119.54C326.385 118.841 326.15 117.939 325.444 117.534L309.479 108.301C309.448 108.284 309.41 108.29 309.378 108.274C309.313 108.242 309.252 108.243 309.184 108.221C308.909 108.132 308.63 108.129 308.35 108.208C308.3 108.222 308.253 108.187 308.205 108.206C308.177 108.218 308.174 108.25 308.148 108.261C308.103 108.28 308.051 108.274 308.01 108.298C307.752 108.448 307.571 108.678 307.446 108.94C307.415 109.002 307.415 109.064 307.394 109.131C307.346 109.276 307.276 109.413 307.276 109.571V127.95C307.276 128.762 307.935 129.42 308.744 129.42C309.553 129.42 310.214 128.762 310.214 127.95V117.28L319.323 140.322C319.5 140.77 319.88 141.1 320.351 141.211C320.804 141.321 321.308 141.2 321.664 140.881L336.185 127.993L345.204 159.806C345.347 160.309 345.742 160.697 346.253 160.826C346.764 160.958 347.297 160.803 347.664 160.431L358.646 149.229L370.199 173.689C370.365 174.045 370.671 174.318 371.043 174.446C371.41 174.575 371.817 174.553 372.173 174.377L382.804 169.15L389.378 182.55V212.922C389.378 213.826 388.399 214.391 387.616 213.938L293.522 159.606C291.705 158.557 290.586 156.617 290.586 154.518V69.1317C290.586 68.2277 291.566 67.6605 292.349 68.1133Z" fill="#872EFF"/>
<path d="M417.685 164.564C417.685 164.564 469.072 194.251 487.049 204.636L417.685 164.564Z" fill="white"/>
<path d="M417.685 164.564C417.685 164.564 469.072 194.251 487.049 204.636" stroke="#D0CAE3" stroke-width="1.823" stroke-linecap="round" stroke-linejoin="round"/>
<path d="M417.685 183.206C417.685 183.206 469.072 212.893 487.049 223.278L417.685 183.206Z" fill="white"/>
<path d="M417.685 183.206C417.685 183.206 469.072 212.893 487.049 223.278" stroke="#D0CAE3" stroke-width="1.823" stroke-linecap="round" stroke-linejoin="round"/>
<path d="M417.685 201.845C417.685 201.845 469.072 231.533 487.049 241.918L417.685 201.845Z" fill="white"/>
<path d="M417.685 201.845C417.685 201.845 469.072 231.533 487.049 241.918" stroke="#D0CAE3" stroke-width="1.823" stroke-linecap="round" stroke-linejoin="round"/>
<path d="M499.74 326.722C489.745 322.69 477.398 314.102 469.916 305.974C461.806 297.165 458.914 288.962 448.289 280.328C440.039 273.625 429.859 269.193 423.45 268.418C417.042 267.643 413.689 269.815 411.07 272.365C408.452 274.916 406.338 277.903 401.759 278.882C399.037 279.463 395.02 279.172 389.701 276.436C385.01 274.023 380.194 270.124 376.764 266.523C373.333 262.921 371.066 259.539 369.008 256.286C362.239 245.585 357.089 235.482 353.693 226.236C352.739 223.64 351.899 221.064 349.853 218.007C347.806 214.95 344.299 211.257 339.959 208.339C333.269 203.842 327.223 202.838 323.972 203.713C317.905 205.347 317.691 211.459 315.986 216.367C315.108 218.897 313.179 221.078 310.06 221.994" stroke="#A6F0A1" stroke-width="1.823" stroke-linecap="round" stroke-linejoin="round"/>
<path d="M466.288 313.602C465.05 312.168 463.98 310.77 463.118 309.442C460.459 305.352 458.943 301.144 453.32 296.901C450.19 294.54 446.615 292.918 444.09 292.42C441.565 291.922 439.968 292.41 438.918 293.264C436.829 294.963 436.673 298.071 434.327 299.573C431.981 301.074 426.246 300.367 419.749 296.052C414.48 292.552 410.811 288.119 408.067 284.329C403.364 277.833 399.624 271.634 396.955 265.92C395.787 263.416 394.79 260.952 392.603 258.068C390.417 255.184 386.714 251.708 382.724 249.46C378.904 247.309 375.678 246.773 373.97 247.375C372.262 247.978 371.796 249.539 371.355 251.075C370.457 254.194 369.561 257.314 368.664 260.433C367.947 262.929 366.632 265.511 361.171 263.675C354.94 261.581 347.083 254.899 342.646 249.633C337.626 243.679 334.972 238.421 332.093 233.16C329.214 227.899 325.843 222.285 319.85 216.186C313.858 210.087 304.562 203.394 297.622 201.178" stroke="white" stroke-width="1.823" stroke-linecap="round" stroke-linejoin="round"/>
<path d="M209.042 306.556C209.042 310.847 212.476 314.376 216.862 314.376C221.153 314.376 224.682 310.847 224.682 306.556C224.682 302.168 221.153 298.735 216.862 298.735C212.476 298.735 209.042 302.168 209.042 306.556Z" fill="#FF332A"/>
<path d="M413.878 10.5998L432.899 20.3096" stroke="white" stroke-width="1.823" stroke-linecap="round" stroke-linejoin="round"/>
<path d="M428.243 5.94552L418.534 24.9639" stroke="white" stroke-width="1.823" stroke-linecap="round" stroke-linejoin="round"/>
<path d="M122.704 534.971C122.704 539.262 126.139 542.791 130.525 542.791C134.816 542.791 138.345 539.262 138.345 534.971C138.345 530.584 134.816 527.152 130.525 527.152C126.139 527.152 122.704 530.584 122.704 534.971Z" stroke="#1B44BC" stroke-width="1.823" stroke-linecap="round" stroke-linejoin="round"/>
</svg>
