<svg width="42" height="40" viewBox="0 0 42 40" fill="none" xmlns="http://www.w3.org/2000/svg">
<path d="M2.3191 17.1323C2.7258 15.3021 4.34905 14 6.22385 14H11.0152L7.01516 32H4.00162C1.44263 32 -0.458248 29.6303 0.0968756 27.1323L2.3191 17.1323Z M38.3003 8H20.3013L19.6928 10.8384C19.2975 12.6825 17.6677 14 15.7817 14H11.0152L13.3368 3.16214C13.7319 1.31774 15.3618 0 17.248 0H35.0665C37.613 0 39.5112 2.34793 38.9777 4.83792L38.3003 8Z M29.9778 36.8379C29.5827 38.6823 27.9528 40 26.0666 40H10.2481C7.70162 40 5.80342 37.6521 6.33686 35.1621L7.01516 32H31.0143L29.9778 36.8379Z M37.642 17C40.2443 17 42.1537 19.4456 41.5226 21.9701L39.7726 28.9701C39.3274 30.7508 37.7275 32 35.892 32H31.0143L32.7651 25H13.0151L14.0516 20.1621C14.4467 18.3177 16.0766 17 17.9628 17H37.642Z" fill="#ffffff"></path>
</svg>